<svg id="svg" version="1.1" xmlns="http://www.w3.org/2000/svg" xmlns:xlink="http://www.w3.org/1999/xlink" width="400" height="262.61398176291794" viewBox="0, 0, 400,262.61398176291794"><g id="svgg"><path id="path0" d="M343.769 37.091 C 337.587 37.270,335.257 37.578,324.822 39.593 C 322.203 40.098,318.874 40.701,317.426 40.931 C 298.504 43.943,288.228 49.626,287.227 57.632 C 287.059 58.982,287.164 58.959,285.870 57.935 C 281.881 54.782,277.697 54.185,270.289 55.709 C 265.844 56.624,265.262 56.705,260.689 57.042 C 250.477 57.796,244.062 60.653,237.282 67.465 C 228.809 75.979,225.174 85.189,224.723 99.291 C 224.182 116.177,224.592 122.500,226.633 128.761 C 227.803 132.350,227.457 134.316,224.741 139.507 C 223.981 140.960,223.200 142.574,223.005 143.096 C 222.811 143.617,222.447 144.235,222.198 144.469 L 221.745 144.895 220.042 143.208 C 213.373 136.604,202.680 138.438,196.767 147.200 C 195.203 149.518,193.870 152.274,190.977 159.169 C 186.569 169.675,182.974 173.848,177.016 175.373 C 164.817 178.496,158.634 165.577,158.640 136.981 C 158.643 125.268,159.652 119.826,163.241 112.158 C 167.344 103.395,176.312 96.630,182.211 97.849 C 185.570 98.542,187.376 100.360,193.126 108.836 C 202.465 122.603,207.283 124.973,213.477 118.845 C 219.543 112.844,221.353 105.510,218.662 97.836 C 217.649 94.946,217.558 94.767,216.352 93.313 C 215.705 92.533,214.649 91.120,214.004 90.172 C 211.748 86.854,212.348 87.431,215.005 91.135 C 216.835 93.687,217.125 93.963,216.178 92.249 C 214.220 88.709,207.534 79.734,207.145 80.123 C 207.083 80.185,206.399 79.638,205.624 78.908 C 201.908 75.402,198.502 73.774,192.839 72.799 C 189.475 72.219,178.569 72.293,175.708 72.915 C 158.490 76.657,141.100 94.640,133.744 116.312 C 132.242 120.739,130.912 126.108,130.106 131.003 C 129.756 133.130,129.559 134.589,129.173 137.893 C 128.236 145.930,128.277 158.703,129.264 166.160 C 131.742 184.886,143.559 201.936,156.385 205.291 C 171.805 209.325,190.251 201.146,198.401 186.662 L 199.350 184.975 199.472 185.953 C 199.540 186.490,199.691 187.933,199.808 189.159 C 200.032 191.499,200.527 194.922,201.712 202.330 C 202.105 204.782,202.607 208.202,202.828 209.929 C 203.595 215.909,204.954 219.304,207.881 222.557 C 210.284 225.228,211.684 225.180,215.521 222.296 C 224.836 215.294,228.164 205.774,228.769 184.397 C 229.235 167.924,228.772 162.046,226.417 154.531 C 226.305 154.172,226.381 154.157,227.585 154.293 C 232.623 154.863,234.730 159.411,235.760 171.935 C 237.927 198.285,246.200 211.526,258.990 209.115 C 265.977 207.799,267.855 198.020,264.138 182.304 C 262.526 175.486,261.355 170.337,260.997 168.490 C 260.759 167.264,260.253 164.985,259.873 163.425 C 255.617 145.950,257.518 140.912,269.504 137.904 C 276.516 136.144,285.784 135.410,292.401 136.089 C 297.684 136.631,300.022 136.188,301.746 134.321 L 302.508 133.495 303.556 133.843 C 304.186 134.052,304.916 134.149,305.387 134.086 C 306.292 133.965,306.150 133.540,306.692 137.994 C 307.086 141.231,308.031 146.434,308.720 149.159 C 308.990 150.230,309.446 152.920,309.733 155.137 C 310.441 160.605,310.987 162.803,312.157 164.898 C 312.763 165.982,312.782 166.160,312.292 166.160 C 310.403 166.160,304.003 172.131,302.595 175.207 C 299.357 182.278,305.278 189.144,317.325 192.290 C 323.380 193.870,325.443 194.048,327.799 193.190 C 329.542 192.556,329.154 192.408,333.669 195.424 C 336.700 197.448,340.028 199.280,341.116 199.523 L 341.705 199.655 341.583 197.345 C 341.451 194.813,340.934 191.592,340.011 187.548 C 339.682 186.105,339.481 184.862,339.564 184.786 C 339.648 184.710,341.631 184.130,343.972 183.496 C 353.219 180.993,360.800 178.519,367.048 175.964 C 368.260 175.468,371.862 173.889,375.052 172.456 C 378.241 171.023,381.763 169.471,382.877 169.008 C 391.791 165.304,396.722 160.334,398.884 152.873 C 401.312 144.495,399.700 137.576,393.937 131.645 C 386.739 124.236,378.684 121.017,358.643 117.540 C 352.626 116.496,345.538 115.113,344.382 114.758 C 344.059 114.658,344.175 114.548,344.990 114.182 C 345.544 113.933,346.591 113.203,347.315 112.561 C 349.639 110.500,362.682 100.974,365.795 99.064 C 369.554 96.757,379.075 87.230,383.180 81.670 C 386.937 76.580,389.244 71.857,390.509 66.667 C 391.074 64.347,390.872 59.044,390.103 56.028 C 387.456 45.640,385.946 43.853,376.918 40.429 C 367.791 36.967,363.358 36.520,343.769 37.091 M347.011 68.807 C 350.760 69.086,355.097 69.575,356.180 69.841 C 357.816 70.242,356.149 73.015,351.397 77.801 C 349.876 79.333,347.948 81.344,347.112 82.271 C 343.763 85.985,339.072 88.956,336.558 88.956 C 335.990 88.956,335.936 88.907,336.062 88.501 C 337.025 85.401,336.913 83.841,335.380 79.023 C 334.080 74.935,333.876 73.937,333.976 72.124 C 334.188 68.236,335.360 67.938,347.011 68.807 M303.057 75.633 C 302.324 79.234,302.290 85.544,302.990 88.349 C 304.023 92.487,304.758 99.284,304.767 104.762 C 304.769 106.601,304.852 108.450,304.950 108.872 L 305.128 109.639 303.974 110.222 C 303.340 110.542,302.348 111.229,301.769 111.749 C 301.095 112.356,300.626 112.638,300.460 112.536 C 300.319 112.450,299.792 112.064,299.291 111.680 C 294.982 108.380,287.197 107.961,276.798 110.469 C 271.950 111.638,265.931 113.635,262.808 115.111 C 259.516 116.667,258.417 116.646,256.973 115.002 C 255.065 112.828,254.507 109.992,254.511 102.484 C 254.518 89.221,256.899 87.487,276.292 86.623 C 287.276 86.133,289.872 84.778,291.037 78.926 L 291.319 77.508 293.329 77.375 C 295.476 77.233,296.229 77.022,298.288 75.983 C 299.552 75.344,300.776 75.052,302.406 75.000 C 303.188 74.975,303.191 74.978,303.057 75.633 M206.589 79.490 C 206.784 79.800,206.995 80.002,207.058 79.940 C 207.120 79.878,206.960 79.624,206.702 79.376 L 206.233 78.926 206.589 79.490 M343.772 139.830 C 347.931 140.105,350.170 140.552,353.773 141.824 C 355.627 142.478,357.303 142.929,358.389 143.064 C 360.148 143.282,361.499 143.768,361.499 144.181 C 361.499 145.084,357.985 147.722,354.306 149.582 C 352.746 150.371,350.876 151.358,350.152 151.776 C 348.659 152.638,343.525 155.410,341.844 156.261 C 340.676 156.853,339.213 157.033,339.206 156.586 C 339.204 156.446,339.066 155.560,338.899 154.616 C 338.230 150.836,337.395 140.296,337.721 139.767 C 337.852 139.555,339.966 139.577,343.772 139.830 M376.258 149.511 L 376.730 149.875 375.610 150.739 C 373.232 152.573,372.049 154.314,372.041 155.991 L 372.036 156.866 372.929 156.135 C 375.709 153.857,379.456 154.117,380.769 156.679 C 383.143 161.308,373.765 165.473,370.528 161.228 C 368.052 157.982,369.295 153.666,373.652 150.383 C 375.464 149.018,375.570 148.982,376.258 149.511 M364.459 158.766 C 365.365 161.105,366.251 163.362,366.428 163.781 L 366.749 164.543 368.107 164.032 C 369.596 163.471,369.608 163.473,369.928 164.402 L 370.150 165.046 366.407 166.517 C 361.612 168.403,361.761 168.368,361.494 167.666 C 361.185 166.853,361.321 166.685,362.696 166.183 C 363.375 165.936,363.931 165.693,363.931 165.645 C 363.931 165.532,360.878 157.568,360.808 157.498 C 360.779 157.470,360.246 157.811,359.623 158.257 C 358.335 159.180,358.240 159.203,357.790 158.706 C 357.483 158.367,357.580 158.235,359.366 156.577 C 362.591 153.583,362.423 153.511,364.459 158.766 M373.925 157.028 C 372.106 158.092,371.979 158.771,373.327 160.252 C 375.260 162.377,379.138 161.039,378.646 158.417 C 378.296 156.552,375.930 155.855,373.925 157.028 M353.660 158.945 C 359.074 160.574,358.471 167.724,352.580 171.749 C 350.624 173.086,349.052 172.491,350.912 171.118 C 353.276 169.373,354.475 167.683,354.733 165.732 L 354.876 164.640 354.018 165.414 C 351.019 168.118,346.495 167.642,345.681 164.539 C 344.812 161.229,349.749 157.768,353.660 158.945 M349.443 160.797 C 346.896 162.090,347.837 165.350,350.758 165.350 C 352.177 165.350,354.205 164.095,354.205 163.217 C 354.205 161.371,351.260 159.875,349.443 160.797 M341.190 165.704 C 341.750 167.125,342.640 169.405,343.169 170.770 C 343.698 172.135,344.198 173.252,344.281 173.252 C 344.363 173.252,345.027 173.027,345.758 172.753 L 347.086 172.253 347.322 172.969 C 347.627 173.894,347.897 173.723,343.298 175.514 C 339.143 177.132,338.991 177.152,338.938 176.094 C 338.908 175.480,338.971 175.421,340.122 174.979 C 340.886 174.686,341.315 174.410,341.276 174.237 C 341.076 173.342,338.306 166.363,338.151 166.363 C 338.047 166.363,337.450 166.730,336.824 167.178 L 335.685 167.994 335.275 167.584 L 334.865 167.174 336.661 165.502 C 338.356 163.923,339.428 163.148,339.944 163.129 C 340.070 163.124,340.630 164.283,341.190 165.704 " stroke="none" fill="#c4042b" fill-rule="evenodd"></path><path id="path1" d="M200.066 6.640 C 199.378 7.167,197.380 8.739,195.626 10.132 C 193.872 11.525,191.936 13.047,191.324 13.514 C 190.712 13.981,189.891 14.620,189.499 14.933 C 189.108 15.245,188.311 15.866,187.728 16.312 C 187.146 16.758,185.555 17.989,184.193 19.048 C 178.267 23.654,176.860 24.740,174.468 26.547 C 173.075 27.599,171.890 28.508,171.834 28.567 C 171.658 28.751,170.313 29.768,162.310 35.767 C 153.801 42.145,153.378 42.459,148.024 46.348 C 140.330 51.937,133.534 60.199,128.809 69.706 C 126.476 74.400,125.411 77.268,123.992 82.675 C 122.806 87.198,122.340 91.207,122.295 97.274 L 122.256 102.653 119.864 107.456 C 118.548 110.098,117.359 112.259,117.222 112.259 C 117.085 112.259,114.292 109.592,111.016 106.332 C 104.597 99.946,100.444 96.115,94.847 91.418 C 90.662 87.906,85.587 83.991,82.158 81.629 C 81.261 81.012,80.076 80.190,79.524 79.803 C 74.916 76.572,68.161 72.761,62.614 70.261 C 48.742 64.010,37.175 63.938,28.052 70.047 C 27.056 70.714,25.740 71.538,25.127 71.878 C 24.514 72.218,23.360 72.859,22.564 73.303 C 21.625 73.826,20.627 74.196,19.727 74.355 C 18.963 74.490,17.687 74.737,16.890 74.904 L 15.442 75.209 15.110 76.561 C 14.089 80.721,13.363 82.482,11.545 85.208 C -0.535 103.311,-3.282 118.552,4.120 126.397 C 9.436 132.032,17.761 133.757,29.205 131.595 C 32.030 131.062,39.148 129.004,41.033 128.176 C 43.561 127.066,47.649 122.151,50.966 116.234 C 51.570 115.157,52.261 114.221,52.685 113.905 C 53.075 113.614,53.440 113.319,53.495 113.249 C 54.039 112.566,58.891 109.807,61.094 108.927 C 66.412 106.804,71.824 106.967,74.569 109.334 C 74.737 109.478,75.466 109.888,76.190 110.246 C 88.541 116.341,100.142 128.990,105.168 141.844 C 105.408 142.457,105.723 143.232,105.869 143.566 C 108.432 149.445,110.907 160.903,110.431 164.688 C 108.466 180.290,100.103 188.962,86.399 189.607 C 84.037 189.718,82.783 189.623,77.812 188.956 C 76.641 188.799,74.804 188.576,73.728 188.460 C 71.397 188.209,68.303 187.607,66.413 187.038 C 65.661 186.812,64.476 186.455,63.779 186.245 C 59.660 185.004,53.157 181.818,49.359 179.180 C 47.591 177.951,46.306 177.020,46.201 176.889 C 46.145 176.820,45.951 176.680,45.769 176.578 C 45.208 176.263,42.961 174.269,40.628 172.015 C 36.400 167.931,34.159 167.437,32.912 170.314 C 32.767 170.648,32.438 171.153,32.180 171.435 C 31.923 171.717,31.032 172.720,30.200 173.664 C 26.070 178.350,21.662 182.667,19.715 183.930 C 17.916 185.097,17.259 186.265,17.628 187.636 C 17.780 188.200,17.782 189.583,17.634 192.302 C 16.658 210.283,16.555 208.699,18.976 212.920 C 27.425 227.649,51.047 232.607,71.429 223.929 C 71.651 223.834,72.199 223.615,72.644 223.442 C 76.299 222.025,84.871 217.959,89.159 215.611 C 90.329 214.970,91.788 214.171,92.401 213.836 C 93.014 213.500,94.336 212.746,95.339 212.159 C 100.543 209.116,100.324 209.228,100.510 209.530 C 101.013 210.343,101.174 222.889,100.736 227.052 C 99.952 234.493,98.804 239.378,96.559 244.826 C 96.403 245.205,96.196 245.097,102.330 247.867 C 104.058 248.647,106.436 249.731,107.615 250.276 C 108.795 250.821,109.808 251.266,109.868 251.266 C 109.927 251.266,110.182 250.651,110.434 249.899 C 113.458 240.872,120.970 226.640,127.345 217.862 L 128.132 216.778 129.464 218.252 C 141.688 231.779,157.075 237.248,173.354 233.854 C 180.420 232.380,187.828 229.031,195.238 223.960 C 196.464 223.121,197.719 222.242,198.026 222.007 C 198.333 221.773,198.943 221.307,199.381 220.973 C 202.968 218.236,204.246 217.102,204.176 216.717 C 204.135 216.494,203.896 215.525,203.645 214.562 L 203.188 212.812 202.253 212.703 C 200.648 212.514,196.541 211.787,194.529 211.335 C 193.470 211.097,192.238 210.827,191.791 210.735 C 188.573 210.072,181.438 207.455,177.648 205.548 C 176.667 205.055,175.796 204.692,175.714 204.743 C 172.999 206.421,161.907 206.736,156.385 205.291 C 143.559 201.936,131.742 184.886,129.264 166.160 C 128.277 158.703,128.236 145.930,129.173 137.893 C 129.915 131.531,130.343 129.035,131.550 124.012 C 137.682 98.506,156.119 77.172,175.708 72.915 C 180.041 71.973,191.608 72.281,195.947 73.453 C 196.560 73.619,197.118 73.755,197.186 73.756 C 197.254 73.758,197.414 73.235,197.540 72.594 C 198.229 69.093,198.408 68.115,198.782 65.819 C 200.926 52.623,202.013 34.346,201.748 15.907 C 201.676 10.892,201.550 6.539,201.467 6.235 L 201.317 5.681 200.066 6.640 M254.739 96.456 C 254.151 100.013,254.562 109.826,255.397 112.193 C 256.873 116.377,258.649 117.076,262.808 115.111 C 267.470 112.908,275.571 110.507,281.985 109.428 C 284.836 108.948,284.707 109.059,284.011 107.684 C 281.154 102.043,274.404 97.157,267.680 95.864 C 267.067 95.747,266.064 95.544,265.451 95.414 C 264.838 95.284,262.229 95.152,259.652 95.120 L 254.969 95.064 254.739 96.456 M178.723 97.960 C 169.689 99.981,161.615 110.973,159.368 124.309 C 157.176 137.321,159.168 159.233,163.356 168.178 L 164.348 170.297 165.885 167.975 C 172.810 157.513,184.829 149.036,195.791 146.880 C 196.801 146.682,197.165 146.503,197.563 146.010 C 203.868 138.204,213.746 136.973,220.042 143.208 L 221.745 144.895 222.198 144.469 C 222.447 144.235,222.811 143.617,223.005 143.096 C 223.200 142.574,223.981 140.960,224.741 139.507 C 227.457 134.316,227.803 132.350,226.633 128.761 C 225.019 123.810,224.529 119.705,224.523 111.094 C 224.521 107.834,224.444 105.167,224.353 105.167 C 224.049 105.167,220.196 106.592,219.952 106.794 C 219.820 106.904,219.660 107.426,219.597 107.955 C 219.347 110.061,217.691 113.752,215.984 116.008 C 209.962 123.967,204.447 123.785,197.791 115.409 C 196.969 114.375,196.549 113.995,196.341 114.101 C 194.929 114.818,184.481 115.345,183.515 114.748 C 183.273 114.598,183.508 110.639,183.906 108.172 C 184.372 105.277,185.666 100.386,186.073 99.979 C 186.234 99.818,185.314 99.049,184.397 98.579 C 182.684 97.699,180.806 97.495,178.723 97.960 M282.067 135.987 C 258.135 138.327,254.761 142.506,259.885 163.462 C 260.271 165.043,260.588 166.460,260.588 166.610 C 260.588 166.760,260.839 167.032,261.146 167.213 C 262.090 167.771,270.141 176.158,271.332 177.824 C 272.412 179.335,276.428 181.634,278.648 182.013 C 281.906 182.569,283.199 181.011,283.983 175.583 C 284.161 174.357,284.482 172.396,284.698 171.226 C 284.914 170.056,285.324 167.685,285.608 165.957 C 285.893 164.230,286.177 162.543,286.239 162.209 C 286.302 161.874,286.430 161.054,286.524 160.385 C 286.618 159.716,286.880 157.893,287.107 156.332 C 287.767 151.789,288.500 145.440,288.758 142.047 C 288.888 140.319,289.060 138.199,289.139 137.335 L 289.283 135.765 286.536 135.792 C 285.025 135.807,283.014 135.895,282.067 135.987 " stroke="none" fill="#94c41d" fill-rule="evenodd"></path><path id="path2" d="M271.673 201.745 C 264.801 203.857,263.026 223.955,269.102 230.858 C 271.693 233.801,275.849 233.762,279.131 230.763 C 281.197 228.875,281.062 229.456,281.066 222.455 L 281.070 216.312 277.531 216.257 L 273.991 216.202 273.926 216.662 C 273.890 216.915,273.889 218.054,273.924 219.192 L 273.987 221.262 275.849 221.320 L 277.710 221.378 277.768 223.327 L 277.826 225.275 276.887 226.200 C 273.798 229.246,270.656 227.891,269.438 222.987 C 268.570 219.492,268.665 213.657,269.641 210.552 C 271.243 205.455,275.846 205.347,277.297 210.372 L 277.630 211.525 278.444 211.237 C 278.892 211.080,279.617 210.854,280.055 210.736 C 281.006 210.480,281.033 210.299,280.449 208.018 C 279.120 202.820,275.829 200.468,271.673 201.745 M306.856 201.794 C 302.765 203.207,300.826 208.195,300.816 217.325 C 300.806 227.492,303.558 232.949,308.728 233.014 C 313.935 233.079,316.918 227.303,316.919 217.149 C 316.921 206.119,312.751 199.756,306.856 201.794 M365.644 202.046 C 365.426 202.131,365.339 202.210,365.451 202.222 C 365.562 202.234,366.201 202.297,366.869 202.363 C 367.538 202.429,368.404 202.585,368.794 202.711 L 369.504 202.940 369.504 216.811 L 369.504 230.682 368.794 230.932 C 368.404 231.070,367.470 231.241,366.717 231.312 C 363.157 231.647,365.991 231.814,375.279 231.814 C 384.643 231.814,387.294 231.654,383.739 231.305 C 382.931 231.226,381.973 231.039,381.611 230.890 L 380.952 230.618 380.952 216.945 C 380.952 201.534,380.810 202.763,382.619 202.544 C 384.670 202.296,385.208 202.192,385.208 202.046 C 385.208 201.849,366.148 201.849,365.644 202.046 M284.345 217.236 L 284.397 232.477 285.512 232.542 C 286.125 232.578,286.877 232.558,287.183 232.498 L 287.741 232.389 287.741 226.145 C 287.741 219.147,287.647 219.537,289.259 219.838 C 290.844 220.134,291.104 220.587,293.516 227.254 C 295.591 232.991,295.228 232.491,297.374 232.565 C 299.601 232.642,299.574 232.869,297.902 228.052 C 295.881 222.231,295.695 221.782,294.713 220.349 L 293.826 219.053 294.596 218.660 C 297.701 217.076,299.035 210.935,297.360 205.940 C 296.171 202.394,295.654 202.149,289.208 202.061 L 284.293 201.995 284.345 217.236 M319.757 217.208 L 319.757 232.389 320.314 232.482 C 320.621 232.532,323.470 232.562,326.646 232.548 L 332.421 232.523 332.478 229.939 L 332.535 227.356 327.868 227.356 L 323.202 227.356 323.202 223.202 L 323.202 219.048 327.356 219.048 L 331.510 219.048 331.510 216.515 L 331.510 213.982 327.356 213.982 L 323.202 213.982 323.202 210.537 L 323.202 207.092 327.727 207.092 L 332.252 207.092 332.297 204.559 L 332.343 202.026 326.050 202.026 L 319.757 202.026 319.757 217.208 M335.612 217.275 L 335.664 232.523 337.231 232.574 L 338.798 232.625 338.852 226.799 L 338.906 220.973 341.236 220.912 C 344.052 220.839,344.870 220.643,345.812 219.817 C 349.252 216.796,349.375 206.531,346.011 203.167 C 345.051 202.207,344.003 202.026,339.401 202.026 L 335.560 202.026 335.612 217.275 M376.545 202.872 C 376.928 203.068,377.108 229.955,376.730 230.551 C 376.229 231.340,374.010 231.183,373.784 230.341 C 373.619 229.725,373.624 203.768,373.789 203.338 C 374.079 202.583,375.510 202.342,376.545 202.872 M310.110 206.969 C 314.529 208.815,314.781 224.889,310.428 227.336 C 306.805 229.372,304.162 225.106,304.162 217.224 C 304.162 209.504,306.505 205.463,310.110 206.969 M293.194 207.387 C 294.136 207.874,294.529 208.950,294.529 211.044 C 294.529 214.250,293.926 214.782,290.240 214.827 L 287.842 214.857 287.787 210.974 L 287.732 207.092 290.178 207.092 C 291.923 207.092,292.787 207.177,293.194 207.387 M343.552 207.571 C 344.985 208.510,345.487 212.052,344.476 214.083 C 343.776 215.490,343.082 215.805,340.679 215.805 L 338.804 215.805 338.804 211.584 C 338.804 209.262,338.873 207.293,338.956 207.207 C 339.266 206.892,342.962 207.184,343.552 207.571 M266.920 236.235 L 266.464 236.300 266.464 240.541 L 266.464 244.782 272.138 244.782 L 277.812 244.782 277.812 244.073 L 277.812 243.364 273.658 243.364 L 269.504 243.364 269.504 242.148 L 269.504 240.932 273.151 240.932 C 275.431 240.932,276.808 240.856,276.824 240.729 C 276.838 240.618,276.849 240.390,276.849 240.223 C 276.849 240.056,276.838 239.828,276.824 239.716 C 276.808 239.590,275.431 239.514,273.151 239.514 L 269.504 239.514 269.504 238.493 C 269.504 237.558,269.542 237.475,269.959 237.511 C 270.210 237.533,271.988 237.536,273.911 237.519 L 277.406 237.487 277.406 236.886 L 277.406 236.285 272.391 236.228 C 269.633 236.196,267.171 236.199,266.920 236.235 M286.673 236.235 C 286.347 236.367,286.171 240.347,286.310 244.428 C 286.320 244.728,286.525 244.782,287.639 244.782 L 288.956 244.782 288.956 242.037 C 288.956 239.773,289.005 239.319,289.233 239.453 C 289.385 239.542,290.727 240.778,292.216 242.199 L 294.922 244.782 296.389 244.782 L 297.856 244.782 297.915 240.609 C 297.947 238.313,297.910 236.396,297.832 236.347 C 297.754 236.299,297.161 236.243,296.515 236.222 L 295.339 236.185 295.238 239.064 L 295.137 241.944 293.718 240.570 C 289.075 236.075,289.294 236.247,288.114 236.164 C 287.519 236.123,286.870 236.154,286.673 236.235 M317.477 236.230 L 316.109 236.290 316.109 240.536 L 316.109 244.782 317.629 244.782 L 319.149 244.782 319.149 242.958 C 319.149 241.643,319.220 241.130,319.402 241.118 C 319.542 241.109,320.864 241.087,322.340 241.068 L 325.025 241.033 325.025 242.908 L 325.025 244.782 326.545 244.782 L 328.065 244.782 328.065 240.553 L 328.065 236.324 327.102 236.201 C 326.573 236.134,325.957 236.115,325.735 236.160 C 325.512 236.204,325.261 236.247,325.177 236.256 C 325.094 236.265,325.025 237.024,325.025 237.943 L 325.025 239.615 322.239 239.573 C 320.707 239.551,319.384 239.528,319.301 239.523 C 319.217 239.518,319.149 238.790,319.149 237.905 C 319.149 236.050,319.251 236.152,317.477 236.230 M335.258 236.207 C 331.356 237.081,329.506 239.865,331.106 242.454 C 333.229 245.890,342.515 245.775,344.486 242.289 C 346.620 238.515,341.124 234.893,335.258 236.207 M346.258 236.232 C 346.012 236.279,346.355 236.978,347.698 239.170 C 348.668 240.752,349.822 242.663,350.262 243.416 L 351.064 244.786 352.772 244.734 L 354.480 244.681 356.999 240.553 C 359.487 236.477,359.677 235.983,358.686 236.177 C 358.506 236.212,357.933 236.247,357.412 236.256 L 356.465 236.272 354.893 239.058 C 354.028 240.590,353.213 242.006,353.081 242.204 C 352.872 242.518,352.639 242.218,351.270 239.874 C 348.955 235.910,349.200 236.170,347.786 236.170 C 347.123 236.170,346.435 236.198,346.258 236.232 M366.211 236.221 L 361.297 236.279 361.297 240.530 L 361.297 244.782 366.869 244.782 L 372.442 244.782 372.442 244.073 L 372.442 243.364 368.278 243.364 L 364.114 243.364 364.174 242.199 L 364.235 241.033 367.933 240.978 L 371.631 240.923 371.631 240.218 L 371.631 239.514 367.871 239.514 L 364.112 239.514 364.173 238.551 L 364.235 237.589 367.781 237.545 C 369.732 237.520,371.532 237.498,371.783 237.494 C 372.149 237.489,372.239 237.372,372.239 236.903 C 372.239 236.378,371.660 235.930,371.226 236.119 C 371.170 236.143,368.913 236.189,366.211 236.221 M375.735 236.212 C 375.279 236.300,375.279 236.304,375.279 240.541 L 375.279 244.782 376.590 244.782 L 377.901 244.782 377.958 241.996 L 378.014 239.210 380.952 242.002 L 383.891 244.794 385.410 244.737 L 386.930 244.681 386.984 240.729 C 387.049 235.967,387.143 236.198,385.157 236.248 L 384.195 236.272 384.195 239.024 C 384.195 240.543,384.114 241.746,384.015 241.709 C 383.916 241.672,382.584 240.456,381.056 239.007 C 377.785 235.906,377.660 235.841,375.735 236.212 M280.243 240.527 L 280.243 244.782 281.763 244.782 L 283.283 244.782 283.283 240.527 L 283.283 236.272 281.763 236.272 L 280.243 236.272 280.243 240.527 M301.114 240.544 L 301.114 244.816 305.522 244.747 C 311.830 244.648,313.558 243.733,313.529 240.508 C 313.499 237.238,311.606 236.272,305.232 236.272 L 301.114 236.272 301.114 240.544 M308.833 237.903 C 309.968 238.200,310.312 238.727,310.390 240.288 C 310.514 242.791,309.725 243.361,306.130 243.363 L 304.154 243.364 304.154 240.398 L 304.154 237.432 306.130 237.572 C 307.216 237.649,308.433 237.798,308.833 237.903 M339.914 237.851 C 342.721 238.813,342.486 242.391,339.559 243.260 C 336.173 244.266,333.170 242.446,333.759 239.747 C 334.175 237.843,337.186 236.915,339.914 237.851 " stroke="none" fill="#0a4792" fill-rule="evenodd"></path><path id="path3" d="M200.994 5.817 C 200.734 6.148,200.741 6.156,201.064 5.902 C 201.379 5.655,201.421 5.677,201.442 6.105 C 201.460 6.482,201.486 6.505,201.562 6.209 C 201.707 5.647,201.332 5.387,200.994 5.817 M201.676 12.158 C 201.676 12.660,201.716 12.865,201.764 12.614 C 201.812 12.363,201.812 11.953,201.764 11.702 C 201.716 11.451,201.676 11.657,201.676 12.158 M201.684 30.294 C 201.685 30.963,201.723 31.212,201.768 30.847 C 201.813 30.483,201.812 29.936,201.766 29.632 C 201.720 29.327,201.683 29.625,201.684 30.294 M201.474 36.474 C 201.474 36.976,201.513 37.181,201.561 36.930 C 201.610 36.679,201.610 36.269,201.561 36.018 C 201.513 35.767,201.474 35.973,201.474 36.474 M344.225 37.030 C 345.033 37.068,346.355 37.068,347.163 37.030 C 347.971 36.991,347.310 36.960,345.694 36.960 C 344.078 36.960,343.417 36.991,344.225 37.030 M361.145 37.019 C 361.340 37.070,361.659 37.070,361.854 37.019 C 362.049 36.968,361.890 36.926,361.499 36.926 C 361.109 36.926,360.950 36.968,361.145 37.019 M141.941 51.317 L 139.919 53.394 141.996 51.372 C 143.138 50.259,144.073 49.325,144.073 49.295 C 144.073 49.148,143.820 49.388,141.941 51.317 M290.264 51.114 L 289.463 51.976 290.324 51.175 C 290.798 50.734,291.185 50.347,291.185 50.313 C 291.185 50.160,291.009 50.314,290.264 51.114 M138.690 54.762 L 138.095 55.420 138.754 54.825 C 139.116 54.498,139.412 54.202,139.412 54.167 C 139.412 54.010,139.245 54.148,138.690 54.762 M275.737 54.855 C 275.989 54.903,276.354 54.901,276.547 54.850 C 276.741 54.800,276.535 54.760,276.089 54.762 C 275.643 54.765,275.485 54.806,275.737 54.855 M259.729 57.084 C 259.981 57.132,260.346 57.130,260.539 57.079 C 260.733 57.029,260.527 56.989,260.081 56.991 C 259.635 56.994,259.477 57.035,259.729 57.084 M390.942 62.209 C 390.942 62.822,390.980 63.072,391.027 62.766 C 391.073 62.459,391.073 61.958,391.027 61.651 C 390.980 61.345,390.942 61.596,390.942 62.209 M338.956 68.434 C 339.319 68.479,339.911 68.479,340.274 68.434 C 340.636 68.389,340.339 68.353,339.615 68.353 C 338.891 68.353,338.594 68.389,338.956 68.434 M292.047 77.546 C 292.242 77.597,292.561 77.597,292.756 77.546 C 292.951 77.495,292.791 77.453,292.401 77.453 C 292.011 77.453,291.852 77.495,292.047 77.546 M205.794 78.521 C 205.976 78.799,206.222 79.027,206.340 79.027 C 206.458 79.027,206.341 78.799,206.079 78.521 C 205.817 78.242,205.571 78.014,205.532 78.014 C 205.494 78.014,205.611 78.242,205.794 78.521 M302.377 82.067 C 302.377 82.457,302.419 82.617,302.470 82.421 C 302.521 82.226,302.521 81.907,302.470 81.712 C 302.419 81.517,302.377 81.677,302.377 82.067 M288.640 83.739 L 288.045 84.397 288.703 83.802 C 289.317 83.247,289.455 83.080,289.298 83.080 C 289.263 83.080,288.967 83.376,288.640 83.739 M276.743 86.671 C 277.103 86.716,277.741 86.717,278.162 86.673 C 278.582 86.629,278.288 86.592,277.508 86.591 C 276.727 86.590,276.383 86.626,276.743 86.671 M271.581 86.867 C 271.776 86.918,272.095 86.918,272.290 86.867 C 272.485 86.816,272.325 86.774,271.935 86.774 C 271.545 86.774,271.386 86.816,271.581 86.867 M377.799 87.994 L 377.204 88.652 377.862 88.057 C 378.224 87.730,378.521 87.434,378.521 87.399 C 378.521 87.242,378.354 87.380,377.799 87.994 M122.235 93.414 C 122.235 93.804,122.277 93.964,122.328 93.769 C 122.379 93.574,122.379 93.255,122.328 93.060 C 122.277 92.865,122.235 93.024,122.235 93.414 M224.772 94.732 C 224.775 95.177,224.816 95.336,224.865 95.084 C 224.913 94.832,224.911 94.467,224.861 94.273 C 224.810 94.079,224.770 94.286,224.772 94.732 M100.304 96.112 C 100.304 96.147,100.600 96.443,100.963 96.771 L 101.621 97.366 101.026 96.707 C 100.471 96.093,100.304 95.955,100.304 96.112 M102.330 97.936 C 102.330 97.971,102.627 98.267,102.989 98.594 L 103.647 99.189 103.052 98.531 C 102.497 97.917,102.330 97.779,102.330 97.936 M186.829 100.608 C 187.207 100.998,187.562 101.317,187.617 101.317 C 187.673 101.317,187.409 100.998,187.031 100.608 C 186.653 100.218,186.298 99.899,186.243 99.899 C 186.187 99.899,186.451 100.218,186.829 100.608 M122.235 101.114 C 122.235 101.505,122.277 101.664,122.328 101.469 C 122.379 101.274,122.379 100.955,122.328 100.760 C 122.277 100.565,122.235 100.724,122.235 101.114 M224.579 102.128 C 224.579 102.741,224.617 102.991,224.664 102.685 C 224.710 102.378,224.710 101.877,224.664 101.570 C 224.617 101.264,224.579 101.515,224.579 102.128 M183.470 113.273 L 183.485 114.792 184.498 114.813 L 185.512 114.834 184.558 114.752 L 183.604 114.669 183.529 113.211 L 183.455 111.753 183.470 113.273 M347.404 112.513 L 346.809 113.171 347.467 112.576 C 348.081 112.021,348.219 111.854,348.062 111.854 C 348.027 111.854,347.731 112.150,347.404 112.513 M191.238 115.037 C 191.490 115.085,191.855 115.084,192.049 115.033 C 192.243 114.982,192.036 114.942,191.591 114.945 C 191.145 114.947,190.986 114.988,191.238 115.037 M91.388 121.479 C 92.442 122.538,93.351 123.404,93.406 123.404 C 93.462 123.404,92.645 122.538,91.591 121.479 C 90.536 120.420,89.628 119.554,89.572 119.554 C 89.517 119.554,90.334 120.420,91.388 121.479 M44.263 125.684 L 43.668 126.342 44.326 125.747 C 44.940 125.193,45.078 125.025,44.921 125.025 C 44.887 125.025,44.590 125.322,44.263 125.684 M4.357 126.849 C 4.792 127.295,5.194 127.660,5.249 127.660 C 5.305 127.660,4.995 127.295,4.559 126.849 C 4.124 126.403,3.722 126.039,3.666 126.039 C 3.611 126.039,3.921 126.403,4.357 126.849 M393.718 131.408 C 394.324 132.021,394.865 132.523,394.920 132.523 C 394.976 132.523,394.526 132.021,393.921 131.408 C 393.316 130.795,392.775 130.294,392.719 130.294 C 392.663 130.294,393.113 130.795,393.718 131.408 M289.008 138.703 C 289.010 139.149,289.051 139.307,289.100 139.055 C 289.148 138.803,289.146 138.439,289.096 138.245 C 289.045 138.051,289.005 138.257,289.008 138.703 M337.668 139.904 C 337.607 140.063,337.597 140.405,337.646 140.664 C 337.715 141.026,337.742 140.985,337.764 140.483 L 337.791 139.832 339.868 139.766 L 341.945 139.700 339.862 139.658 C 338.215 139.624,337.755 139.676,337.668 139.904 M371.823 151.925 L 371.125 152.685 371.884 151.987 C 372.592 151.337,372.738 151.165,372.583 151.165 C 372.549 151.165,372.207 151.507,371.823 151.925 M371.889 156.231 C 371.889 156.733,371.929 156.938,371.977 156.687 C 372.025 156.436,372.025 156.026,371.977 155.775 C 371.929 155.524,371.889 155.729,371.889 156.231 M369.247 157.447 C 369.247 157.837,369.288 157.996,369.339 157.801 C 369.390 157.606,369.390 157.287,369.339 157.092 C 369.288 156.897,369.247 157.057,369.247 157.447 M357.941 157.903 L 357.345 158.561 358.004 157.966 C 358.618 157.411,358.756 157.244,358.599 157.244 C 358.564 157.244,358.268 157.541,357.941 157.903 M351.722 158.806 C 351.973 158.854,352.383 158.854,352.634 158.806 C 352.885 158.757,352.680 158.718,352.178 158.718 C 351.677 158.718,351.472 158.757,351.722 158.806 M171.112 161.348 L 170.517 162.006 171.175 161.411 C 171.789 160.856,171.927 160.689,171.770 160.689 C 171.736 160.689,171.439 160.985,171.112 161.348 M375.329 161.437 C 375.524 161.488,375.843 161.488,376.039 161.437 C 376.234 161.386,376.074 161.344,375.684 161.344 C 375.294 161.344,375.134 161.386,375.329 161.437 M110.491 162.918 C 110.491 163.419,110.530 163.625,110.579 163.374 C 110.627 163.123,110.627 162.713,110.579 162.462 C 110.530 162.211,110.491 162.416,110.491 162.918 M374.012 163.061 C 374.263 163.109,374.673 163.109,374.924 163.061 C 375.175 163.013,374.970 162.973,374.468 162.973 C 373.967 162.973,373.761 163.013,374.012 163.061 M345.538 163.728 C 345.538 164.119,345.580 164.278,345.631 164.083 C 345.682 163.888,345.682 163.569,345.631 163.374 C 345.580 163.179,345.538 163.338,345.538 163.728 M357.299 164.539 C 357.299 165.041,357.339 165.246,357.387 164.995 C 357.435 164.744,357.435 164.334,357.387 164.083 C 357.339 163.832,357.299 164.037,357.299 164.539 M335.355 166.672 L 334.874 167.183 335.363 167.634 L 335.851 168.085 335.471 167.627 C 335.096 167.176,335.098 167.161,335.564 166.665 C 335.825 166.387,335.993 166.160,335.937 166.160 C 335.881 166.160,335.619 166.390,335.355 166.672 M261.398 167.439 C 261.398 167.474,261.695 167.771,262.057 168.098 L 262.715 168.693 262.120 168.034 C 261.565 167.421,261.398 167.283,261.398 167.439 M305.562 171.175 L 304.863 171.935 305.623 171.237 C 306.330 170.587,306.476 170.415,306.321 170.415 C 306.288 170.415,305.946 170.757,305.562 171.175 M41.945 173.354 C 42.323 173.744,42.678 174.063,42.734 174.063 C 42.790 174.063,42.526 173.744,42.148 173.354 C 41.770 172.964,41.415 172.644,41.359 172.644 C 41.303 172.644,41.567 172.964,41.945 173.354 M29.673 174.113 L 29.078 174.772 29.737 174.177 C 30.350 173.622,30.488 173.455,30.332 173.455 C 30.297 173.455,30.001 173.751,29.673 174.113 M172.796 175.830 C 173.159 175.875,173.751 175.875,174.113 175.830 C 174.476 175.786,174.179 175.749,173.455 175.749 C 172.730 175.749,172.434 175.786,172.796 175.830 M228.849 181.966 C 228.849 183.136,228.883 183.614,228.923 183.029 C 228.964 182.444,228.964 181.487,228.923 180.902 C 228.883 180.317,228.849 180.795,228.849 181.966 M228.634 189.159 C 228.635 189.828,228.673 190.077,228.718 189.713 C 228.763 189.348,228.762 188.801,228.716 188.497 C 228.670 188.192,228.633 188.490,228.634 189.159 M82.928 189.603 C 83.123 189.654,83.442 189.654,83.637 189.603 C 83.832 189.552,83.673 189.510,83.283 189.510 C 82.893 189.510,82.733 189.552,82.928 189.603 M86.376 189.608 C 86.684 189.655,87.140 189.654,87.389 189.606 C 87.638 189.558,87.386 189.519,86.829 189.521 C 86.272 189.522,86.068 189.562,86.376 189.608 M193.302 193.465 L 192.604 194.225 193.364 193.527 C 194.071 192.877,194.217 192.705,194.062 192.705 C 194.028 192.705,193.686 193.047,193.302 193.465 M17.482 193.718 C 17.482 194.220,17.521 194.425,17.570 194.174 C 17.618 193.924,17.618 193.513,17.570 193.262 C 17.521 193.012,17.482 193.217,17.482 193.718 M324.671 193.863 C 324.977 193.910,325.479 193.910,325.785 193.863 C 326.092 193.817,325.841 193.779,325.228 193.779 C 324.615 193.779,324.364 193.817,324.671 193.863 M191.276 195.491 L 190.578 196.251 191.337 195.553 C 192.045 194.903,192.190 194.732,192.036 194.732 C 192.002 194.732,191.660 195.073,191.276 195.491 M286.384 201.975 C 287.588 202.011,289.503 202.011,290.639 201.975 C 291.775 201.939,290.790 201.909,288.450 201.909 C 286.109 201.910,285.180 201.939,286.384 201.975 M319.647 202.077 C 319.313 202.952,319.669 232.519,320.014 232.550 C 320.265 232.573,320.280 232.554,320.065 232.487 C 319.793 232.403,319.757 230.615,319.757 217.212 L 319.757 202.032 326.089 201.976 L 332.421 201.919 326.083 201.871 C 321.163 201.834,319.722 201.880,319.647 202.077 M335.360 217.224 C 335.360 225.694,335.428 232.624,335.512 232.624 C 335.595 232.624,335.640 225.742,335.610 217.330 L 335.557 202.036 339.157 201.975 L 342.756 201.915 339.058 201.869 L 335.360 201.824 335.360 217.224 M365.147 202.128 C 365.147 202.331,365.332 202.422,365.704 202.404 C 366.254 202.377,366.255 202.375,365.755 202.277 C 365.282 202.185,365.275 202.168,365.653 202.015 C 366.038 201.861,366.036 201.851,365.603 201.838 C 365.326 201.829,365.147 201.943,365.147 202.128 M367.733 201.967 C 367.985 202.015,368.350 202.014,368.543 201.963 C 368.737 201.912,368.531 201.873,368.085 201.875 C 367.639 201.877,367.481 201.919,367.733 201.967 M374.924 201.963 C 375.119 202.014,375.438 202.014,375.633 201.963 C 375.828 201.912,375.669 201.871,375.279 201.871 C 374.889 201.871,374.729 201.912,374.924 201.963 M385.208 202.012 C 385.208 202.116,385.003 202.240,384.752 202.289 C 384.361 202.364,384.375 202.380,384.853 202.404 C 385.226 202.422,385.410 202.331,385.410 202.128 C 385.410 201.960,385.365 201.824,385.309 201.824 C 385.253 201.824,385.208 201.909,385.208 202.012 M269.420 203.097 C 268.831 203.686,268.239 204.393,268.104 204.667 C 267.913 205.058,267.959 205.035,268.312 204.559 C 268.561 204.225,269.215 203.518,269.765 202.989 C 270.315 202.459,270.704 202.026,270.628 202.026 C 270.552 202.026,270.008 202.508,269.420 203.097 M311.651 202.062 C 311.707 202.111,312.300 202.645,312.969 203.248 L 314.184 204.344 313.273 203.372 C 312.771 202.838,312.178 202.304,311.955 202.186 C 311.733 202.068,311.596 202.012,311.651 202.062 M278.014 203.141 C 278.392 203.531,278.747 203.850,278.803 203.850 C 278.859 203.850,278.595 203.531,278.217 203.141 C 277.839 202.751,277.484 202.432,277.428 202.432 C 277.372 202.432,277.636 202.751,278.014 203.141 M376.350 203.090 C 376.596 203.341,376.834 203.463,376.877 203.361 C 376.920 203.259,376.789 203.054,376.585 202.905 C 376.000 202.477,375.857 202.589,376.350 203.090 M373.753 216.819 C 373.753 224.230,373.779 227.262,373.809 223.556 C 373.840 219.851,373.840 213.787,373.809 210.081 C 373.779 206.375,373.753 209.407,373.753 216.819 M16.870 205.775 C 16.872 206.221,16.913 206.379,16.962 206.127 C 17.010 205.875,17.009 205.511,16.958 205.317 C 16.907 205.123,16.867 205.329,16.870 205.775 M273.204 206.832 C 273.512 206.879,273.968 206.878,274.218 206.830 C 274.467 206.781,274.215 206.743,273.658 206.745 C 273.100 206.746,272.896 206.786,273.204 206.832 M308.359 206.830 C 308.609 206.878,309.020 206.878,309.271 206.830 C 309.521 206.782,309.316 206.742,308.815 206.742 C 308.313 206.742,308.108 206.782,308.359 206.830 M306.889 207.331 C 306.318 207.781,305.167 209.436,305.167 209.808 C 305.167 209.920,305.464 209.518,305.826 208.914 C 306.188 208.309,306.794 207.607,307.173 207.352 C 307.552 207.098,307.769 206.890,307.656 206.890 C 307.543 206.890,307.198 207.088,306.889 207.331 M287.741 210.930 C 287.741 213.041,287.809 214.811,287.893 214.863 C 287.976 214.914,288.018 213.236,287.985 211.132 L 287.926 207.307 290.417 207.244 L 292.908 207.180 290.324 207.136 L 287.741 207.092 287.741 210.930 M311.033 207.777 C 311.417 208.180,311.763 208.511,311.802 208.511 C 311.974 208.511,311.105 207.512,310.740 207.290 C 310.517 207.154,310.649 207.373,311.033 207.777 M325.380 207.243 C 326.634 207.279,328.685 207.279,329.939 207.243 C 331.193 207.208,330.167 207.179,327.660 207.179 C 325.152 207.179,324.126 207.208,325.380 207.243 M338.895 207.351 C 338.840 207.493,338.823 209.477,338.855 211.758 L 338.915 215.907 338.961 211.609 L 339.007 207.311 340.780 207.243 L 342.553 207.176 340.774 207.134 C 339.486 207.104,338.967 207.164,338.895 207.351 M343.870 208.055 C 344.135 208.417,344.383 208.713,344.422 208.713 C 344.576 208.713,344.074 207.953,343.741 207.683 C 343.522 207.506,343.571 207.647,343.870 208.055 M275.995 207.801 C 275.996 207.913,276.183 208.232,276.411 208.511 C 276.686 208.847,276.755 208.881,276.616 208.612 C 276.275 207.951,275.994 207.585,275.995 207.801 M294.494 211.044 C 294.495 211.824,294.532 212.118,294.575 211.698 C 294.619 211.277,294.619 210.639,294.574 210.279 C 294.529 209.919,294.493 210.263,294.494 211.044 M298.122 210.537 C 298.122 210.927,298.164 211.087,298.215 210.892 C 298.266 210.697,298.266 210.377,298.215 210.182 C 298.164 209.987,298.122 210.147,298.122 210.537 M344.941 211.449 C 344.943 212.006,344.982 212.210,345.029 211.902 C 345.075 211.594,345.074 211.138,345.026 210.889 C 344.978 210.640,344.940 210.892,344.941 211.449 M300.760 213.070 C 300.763 213.516,300.804 213.674,300.853 213.422 C 300.901 213.170,300.899 212.805,300.848 212.612 C 300.798 212.418,300.758 212.624,300.760 213.070 M268.943 214.184 C 268.943 214.574,268.984 214.734,269.035 214.539 C 269.086 214.344,269.086 214.025,269.035 213.830 C 268.984 213.635,268.943 213.794,268.943 214.184 M313.320 214.387 C 313.320 214.777,313.361 214.937,313.412 214.742 C 313.463 214.547,313.463 214.227,313.412 214.032 C 313.361 213.837,313.320 213.997,313.320 214.387 M327.305 213.931 L 331.510 213.990 331.510 216.515 L 331.510 219.039 327.305 219.101 L 323.100 219.162 327.356 219.155 L 331.611 219.149 331.667 216.464 L 331.724 213.779 327.412 213.825 L 323.100 213.872 327.305 213.931 M304.209 214.792 C 304.209 215.294,304.249 215.499,304.297 215.248 C 304.345 214.997,304.345 214.587,304.297 214.336 C 304.249 214.086,304.209 214.291,304.209 214.792 M343.566 215.122 C 343.202 215.432,343.127 215.555,343.380 215.429 C 343.752 215.245,344.449 214.578,344.250 214.597 C 344.208 214.601,343.901 214.837,343.566 215.122 M265.326 217.224 C 265.326 218.617,265.359 219.187,265.398 218.490 C 265.438 217.794,265.438 216.654,265.398 215.957 C 265.359 215.261,265.326 215.831,265.326 217.224 M316.999 217.325 C 316.999 218.774,317.031 219.340,317.070 218.583 C 317.110 217.826,317.109 216.641,317.070 215.949 C 317.030 215.257,316.998 215.876,316.999 217.325 M300.584 217.325 C 300.584 218.663,300.617 219.183,300.657 218.482 C 300.697 217.782,300.696 216.687,300.656 216.051 C 300.616 215.414,300.584 215.988,300.584 217.325 M273.786 216.565 C 273.811 217.056,273.825 217.067,273.903 216.658 L 273.992 216.193 277.605 216.253 C 279.592 216.285,281.176 216.244,281.124 216.160 C 281.072 216.076,279.394 216.008,277.394 216.008 L 273.759 216.008 273.786 216.565 M100.991 218.845 C 100.991 220.350,101.023 220.965,101.062 220.213 C 101.101 219.460,101.101 218.229,101.062 217.477 C 101.023 216.725,100.991 217.340,100.991 218.845 M281.142 221.783 C 281.142 224.681,281.171 225.838,281.205 224.355 C 281.240 222.872,281.240 220.501,281.205 219.086 C 281.170 217.672,281.142 218.886,281.142 221.783 M295.835 217.781 L 295.137 218.541 295.897 217.843 C 296.315 217.459,296.657 217.117,296.657 217.083 C 296.657 216.928,296.485 217.074,295.835 217.781 M273.802 219.301 L 273.759 221.479 275.684 221.479 L 277.609 221.479 277.609 223.364 C 277.609 224.585,277.520 225.348,277.356 225.532 C 277.139 225.775,277.155 225.776,277.464 225.542 C 277.775 225.307,277.817 224.994,277.768 223.323 L 277.710 221.378 275.843 221.320 L 273.976 221.262 273.910 219.192 L 273.844 217.123 273.802 219.301 M347.051 218.138 C 346.865 218.527,346.756 218.845,346.807 218.845 C 346.945 218.845,347.560 217.604,347.468 217.512 C 347.424 217.468,347.236 217.750,347.051 218.138 M129.686 218.706 C 129.686 218.741,129.982 219.037,130.344 219.364 L 131.003 219.959 130.408 219.301 C 129.853 218.687,129.686 218.549,129.686 218.706 M304.209 219.656 C 304.209 220.157,304.249 220.362,304.297 220.111 C 304.345 219.861,304.345 219.450,304.297 219.200 C 304.249 218.949,304.209 219.154,304.209 219.656 M268.947 219.757 C 268.949 220.203,268.990 220.361,269.039 220.109 C 269.087 219.857,269.086 219.492,269.035 219.299 C 268.984 219.105,268.944 219.311,268.947 219.757 M313.324 219.959 C 313.326 220.405,313.367 220.564,313.416 220.312 C 313.464 220.060,313.462 219.695,313.412 219.501 C 313.361 219.307,313.321 219.514,313.324 219.959 M287.741 226.125 C 287.741 231.923,287.714 232.399,287.386 232.484 C 287.119 232.554,287.144 232.583,287.487 232.601 L 287.943 232.624 287.943 226.241 C 287.943 222.730,287.898 219.858,287.842 219.858 C 287.786 219.858,287.741 222.678,287.741 226.125 M338.896 221.127 C 338.842 221.268,338.824 223.935,338.855 227.054 L 338.912 232.725 338.960 226.917 C 338.996 222.495,339.068 221.083,339.260 221.006 C 339.459 220.925,339.457 220.900,339.254 220.887 C 339.111 220.879,338.950 220.987,338.896 221.127 M340.476 221.020 C 341.006 221.062,341.872 221.062,342.401 221.020 C 342.931 220.979,342.497 220.944,341.439 220.944 C 340.380 220.944,339.947 220.979,340.476 221.020 M310.930 226.773 C 310.513 227.216,310.462 227.329,310.760 227.148 C 311.128 226.925,311.774 226.140,311.590 226.140 C 311.554 226.140,311.257 226.425,310.930 226.773 M271.225 226.716 C 271.446 226.977,271.810 227.284,272.034 227.399 C 272.465 227.620,272.402 227.552,271.430 226.745 C 270.845 226.259,270.838 226.258,271.225 226.716 M306.483 226.716 C 306.704 226.977,307.068 227.284,307.293 227.399 C 307.723 227.620,307.660 227.552,306.688 226.745 C 306.103 226.259,306.096 226.258,306.483 226.716 M281.105 227.862 C 281.107 228.308,281.149 228.467,281.197 228.214 C 281.245 227.962,281.244 227.598,281.193 227.404 C 281.142 227.210,281.103 227.416,281.105 227.862 M332.522 229.930 C 332.467 231.401,332.493 232.534,332.580 232.446 C 332.667 232.359,332.712 231.155,332.680 229.771 L 332.622 227.254 332.522 229.930 M314.732 228.880 C 314.489 229.379,314.334 229.787,314.386 229.787 C 314.523 229.787,315.342 228.141,315.250 228.050 C 315.207 228.007,314.974 228.381,314.732 228.880 M302.969 229.394 C 303.223 229.846,303.555 230.318,303.706 230.444 C 303.857 230.569,303.687 230.199,303.328 229.622 C 302.553 228.376,302.310 228.221,302.969 229.394 M279.526 230.446 L 278.521 231.510 279.585 230.504 C 280.573 229.570,280.741 229.382,280.590 229.382 C 280.558 229.382,280.079 229.861,279.526 230.446 M380.976 230.236 C 380.953 230.572,381.696 231.138,381.897 230.937 C 381.951 230.882,381.813 230.779,381.589 230.708 C 381.364 230.637,381.140 230.423,381.090 230.234 C 381.005 229.911,380.998 229.911,380.976 230.236 M304.398 231.318 C 304.700 231.648,305.247 232.081,305.614 232.280 C 306.257 232.628,306.263 232.628,305.780 232.278 C 305.504 232.078,304.957 231.645,304.564 231.316 L 303.850 230.717 304.398 231.318 M312.665 231.646 C 312.134 232.128,312.007 232.303,312.361 232.064 C 312.920 231.687,313.849 230.789,313.659 230.809 C 313.613 230.814,313.166 231.190,312.665 231.646 M365.150 231.560 C 365.152 231.790,365.206 231.832,365.303 231.680 C 365.385 231.551,365.725 231.405,366.059 231.356 C 366.610 231.275,366.596 231.264,365.907 231.236 C 365.306 231.212,365.148 231.280,365.150 231.560 M384.395 231.356 C 384.784 231.403,385.171 231.548,385.253 231.678 C 385.352 231.833,385.405 231.793,385.407 231.560 C 385.410 231.273,385.248 231.212,384.549 231.238 C 383.728 231.269,383.721 231.275,384.395 231.356 M370.365 231.965 C 373.067 231.997,377.490 231.997,380.193 231.965 C 382.895 231.933,380.684 231.907,375.279 231.907 C 369.873 231.907,367.662 231.933,370.365 231.965 M295.238 232.450 C 295.238 232.546,295.466 232.624,295.745 232.624 C 296.023 232.624,296.251 232.589,296.251 232.546 C 296.251 232.504,296.023 232.425,295.745 232.372 C 295.466 232.319,295.238 232.354,295.238 232.450 M273.404 233.175 C 273.711 233.221,274.212 233.221,274.519 233.175 C 274.825 233.128,274.574 233.090,273.961 233.090 C 273.349 233.090,273.098 233.128,273.404 233.175 M308.257 233.175 C 308.564 233.221,309.065 233.221,309.372 233.175 C 309.678 233.128,309.428 233.090,308.815 233.090 C 308.202 233.090,307.951 233.128,308.257 233.175 M337.136 236.013 C 337.501 236.058,338.048 236.057,338.352 236.011 C 338.657 235.965,338.359 235.928,337.690 235.929 C 337.021 235.930,336.772 235.968,337.136 236.013 M272.391 236.221 L 277.406 236.279 277.406 236.878 L 277.406 237.478 273.911 237.538 L 270.415 237.599 274.012 237.644 L 277.609 237.690 277.609 236.879 L 277.609 236.069 272.492 236.116 L 267.376 236.163 272.391 236.221 M281.008 236.218 C 281.485 236.260,282.214 236.260,282.629 236.216 C 283.044 236.173,282.655 236.138,281.763 236.138 C 280.871 236.139,280.532 236.175,281.008 236.218 M288.979 236.120 C 289.028 236.147,289.750 236.809,290.583 237.589 L 292.097 239.007 290.684 237.538 C 289.907 236.730,289.185 236.069,289.080 236.069 C 288.975 236.069,288.929 236.092,288.979 236.120 M295.035 238.847 L 295.035 241.624 294.073 240.721 L 293.110 239.818 294.124 240.891 L 295.137 241.964 295.184 240.992 C 295.321 238.195,295.322 236.068,295.187 236.068 C 295.104 236.069,295.035 237.319,295.035 238.847 M296.859 236.147 C 296.859 236.190,297.133 236.266,297.467 236.315 C 297.801 236.364,298.075 236.329,298.075 236.236 C 298.075 236.144,297.801 236.069,297.467 236.069 C 297.133 236.069,296.859 236.104,296.859 236.147 M300.959 240.476 L 301.013 244.883 304.559 244.890 L 308.105 244.898 304.610 244.835 L 301.114 244.773 301.114 240.526 L 301.114 236.280 305.117 236.221 L 309.119 236.161 305.011 236.115 L 300.904 236.069 300.959 240.476 M316.662 236.215 C 317.022 236.260,317.660 236.261,318.081 236.217 C 318.501 236.173,318.207 236.136,317.427 236.135 C 316.646 236.134,316.302 236.170,316.662 236.215 M319.104 237.335 C 319.201 239.488,319.289 239.696,319.321 237.842 C 319.338 236.867,319.283 236.069,319.200 236.069 C 319.116 236.068,319.073 236.638,319.104 237.335 M327.102 236.209 C 327.297 236.260,327.617 236.260,327.812 236.209 C 328.007 236.158,327.847 236.116,327.457 236.116 C 327.067 236.116,326.907 236.158,327.102 236.209 M356.361 236.225 C 356.308 236.310,356.645 236.351,357.109 236.315 C 358.473 236.210,358.639 236.118,357.509 236.092 C 356.931 236.079,356.414 236.139,356.361 236.225 M359.246 236.252 C 359.408 236.355,359.459 236.536,359.366 236.685 C 359.263 236.853,359.290 236.892,359.442 236.797 C 359.803 236.574,359.719 236.069,359.321 236.072 C 359.041 236.074,359.025 236.112,359.246 236.252 M361.094 240.530 L 361.094 244.991 366.819 244.937 L 372.543 244.883 372.564 244.122 L 372.586 243.360 372.501 244.071 L 372.417 244.782 366.857 244.782 L 361.297 244.782 361.297 240.530 L 361.297 236.279 366.211 236.221 L 371.125 236.163 366.109 236.116 L 361.094 236.069 361.094 240.530 M371.884 236.209 C 372.444 236.355,372.363 237.435,371.783 237.547 C 371.392 237.622,371.407 237.639,371.884 237.662 C 372.404 237.688,372.442 237.635,372.442 236.879 C 372.442 236.167,372.387 236.072,371.986 236.092 C 371.643 236.110,371.618 236.139,371.884 236.209 M375.076 240.527 L 375.076 244.985 376.596 244.985 L 378.116 244.985 378.071 242.097 L 378.027 239.210 377.964 241.996 L 377.901 244.782 376.590 244.782 L 375.279 244.782 375.279 240.541 C 375.279 236.304,375.279 236.300,375.735 236.212 C 376.125 236.137,376.111 236.120,375.633 236.096 L 375.076 236.069 375.076 240.527 M377.913 236.210 C 378.080 236.270,378.764 236.833,379.433 237.460 L 380.648 238.602 379.439 237.335 C 378.774 236.639,378.090 236.076,377.919 236.085 C 377.648 236.099,377.647 236.115,377.913 236.210 M384.653 236.214 C 384.961 236.261,385.417 236.260,385.666 236.212 C 385.916 236.163,385.664 236.125,385.106 236.127 C 384.549 236.128,384.345 236.168,384.653 236.214 M386.424 236.217 C 386.591 236.280,386.794 236.433,386.876 236.555 C 386.968 236.693,387.026 236.642,387.028 236.424 C 387.030 236.185,386.882 236.074,386.575 236.085 C 386.271 236.096,386.220 236.139,386.424 236.217 M384.036 238.999 L 383.992 241.626 382.928 240.623 L 381.864 239.620 382.921 240.722 C 384.240 242.099,384.220 242.128,384.144 238.984 L 384.080 236.373 384.036 238.999 M286.203 240.122 C 286.203 242.072,286.233 242.870,286.270 241.895 C 286.308 240.919,286.308 239.324,286.270 238.349 C 286.233 237.373,286.203 238.171,286.203 240.122 M297.872 240.721 L 297.872 244.764 296.403 244.834 L 294.934 244.904 296.505 244.945 L 298.075 244.985 298.075 240.831 C 298.075 238.546,298.029 236.677,297.974 236.677 C 297.918 236.677,297.872 238.497,297.872 240.721 M311.550 237.010 C 312.582 237.925,312.962 238.192,312.564 237.722 C 312.343 237.461,311.979 237.153,311.755 237.038 C 311.531 236.924,311.439 236.911,311.550 237.010 M350.012 237.791 C 350.183 238.126,350.475 238.582,350.661 238.804 C 350.846 239.027,350.793 238.845,350.542 238.399 C 349.990 237.416,349.576 236.941,350.012 237.791 M304.715 237.634 C 305.079 237.679,305.626 237.678,305.931 237.632 C 306.235 237.586,305.937 237.549,305.268 237.550 C 304.600 237.551,304.351 237.589,304.715 237.634 M336.926 237.634 C 337.285 237.678,337.924 237.679,338.344 237.635 C 338.764 237.591,338.470 237.555,337.690 237.554 C 336.910 237.553,336.566 237.589,336.926 237.634 M364.215 237.770 C 364.156 237.925,364.143 238.404,364.187 238.834 C 364.265 239.580,364.270 239.572,364.302 238.657 L 364.336 237.700 367.832 237.639 L 371.327 237.578 367.825 237.533 C 364.986 237.496,364.303 237.541,364.215 237.770 M309.349 238.282 C 309.699 238.495,310.034 238.791,310.093 238.940 C 310.162 239.111,310.207 239.123,310.217 238.971 C 310.235 238.698,309.279 237.892,308.939 237.893 C 308.815 237.894,309.000 238.069,309.349 238.282 M334.593 238.450 C 334.280 238.756,334.210 238.860,334.438 238.680 C 334.666 238.500,335.035 238.252,335.258 238.129 C 335.481 238.006,335.551 237.902,335.414 237.899 C 335.276 237.895,334.907 238.143,334.593 238.450 M340.324 238.130 C 340.547 238.253,340.871 238.456,341.043 238.580 C 341.216 238.703,341.143 238.599,340.880 238.349 C 340.618 238.098,340.294 237.895,340.161 237.899 C 340.028 237.902,340.101 238.006,340.324 238.130 M289.000 241.996 L 288.956 244.782 287.654 244.782 C 286.584 244.782,286.335 244.719,286.259 244.428 C 286.189 244.161,286.161 244.186,286.143 244.529 C 286.121 244.961,286.195 244.985,287.544 244.985 C 289.273 244.985,289.189 245.155,289.108 241.833 L 289.045 239.210 289.000 241.996 M290.679 240.932 C 291.453 241.712,292.132 242.351,292.188 242.351 C 292.243 242.351,291.656 241.712,290.881 240.932 C 290.107 240.152,289.428 239.514,289.373 239.514 C 289.317 239.514,289.905 240.152,290.679 240.932 M371.631 240.218 L 371.631 240.923 367.933 240.978 L 364.235 241.033 364.220 242.148 L 364.205 243.262 364.281 242.199 L 364.357 241.135 368.095 241.135 L 371.834 241.135 371.834 240.324 C 371.834 239.878,371.788 239.514,371.733 239.514 C 371.677 239.514,371.631 239.831,371.631 240.218 M379.635 240.932 C 380.409 241.712,381.088 242.351,381.144 242.351 C 381.200 242.351,380.612 241.712,379.838 240.932 C 379.064 240.152,378.385 239.514,378.329 239.514 C 378.273 239.514,378.861 240.152,379.635 240.932 M330.548 240.831 C 330.550 241.277,330.591 241.435,330.640 241.183 C 330.688 240.931,330.686 240.566,330.636 240.373 C 330.585 240.179,330.545 240.385,330.548 240.831 M276.798 240.725 C 276.798 240.844,275.333 240.947,273.100 240.983 L 269.402 241.043 273.202 241.089 C 276.464 241.128,277.001 241.092,277.001 240.831 C 277.001 240.664,276.955 240.527,276.900 240.527 C 276.844 240.527,276.798 240.616,276.798 240.725 M319.149 242.950 L 319.149 244.765 317.579 244.834 L 316.008 244.903 317.680 244.944 L 319.352 244.985 319.352 243.060 C 319.352 242.001,319.306 241.135,319.250 241.135 C 319.195 241.135,319.149 241.952,319.149 242.950 M309.321 242.770 C 308.987 242.984,308.817 243.159,308.944 243.160 C 309.071 243.161,309.390 242.982,309.653 242.763 C 310.256 242.261,310.111 242.264,309.321 242.770 M382.970 244.022 L 383.874 244.985 385.453 244.985 C 386.321 244.985,387.032 244.916,387.032 244.833 C 387.032 244.749,386.337 244.711,385.486 244.748 L 383.940 244.816 383.004 243.938 L 382.067 243.060 382.970 244.022 M337.234 243.509 C 337.541 243.555,338.042 243.555,338.349 243.509 C 338.655 243.462,338.404 243.424,337.791 243.424 C 337.178 243.424,336.928 243.462,337.234 243.509 M293.617 243.630 C 293.617 243.665,293.913 243.961,294.276 244.288 L 294.934 244.883 294.339 244.225 C 293.784 243.611,293.617 243.473,293.617 243.630 M354.497 244.571 C 354.391 244.677,353.529 244.795,352.582 244.833 L 350.861 244.902 352.609 244.944 C 353.954 244.975,354.416 244.915,354.610 244.681 C 354.888 244.346,354.804 244.264,354.497 244.571 M269.250 244.934 C 270.838 244.968,273.437 244.968,275.025 244.934 C 276.613 244.899,275.314 244.871,272.138 244.871 C 268.961 244.871,267.662 244.899,269.250 244.934 M281.008 244.931 C 281.485 244.974,282.214 244.973,282.629 244.929 C 283.044 244.886,282.655 244.851,281.763 244.852 C 280.871 244.852,280.532 244.888,281.008 244.931 M325.791 244.931 C 326.267 244.974,326.997 244.973,327.412 244.929 C 327.827 244.886,327.437 244.851,326.545 244.852 C 325.653 244.852,325.314 244.888,325.791 244.931 " stroke="none" fill="#95abd0" fill-rule="evenodd"></path></g></svg>